# xmcd
#
# Track frame offsets: 
#        150
#        13915
#        33812
#        55225
#        78387
#        104172
#        125035
#        145092
#        168000
#        187080
#        210257
#        225260
#
# Disc length: 3284 seconds
#
# Revision: 6
# Processed by: cddbd v1.5.2PL0 Copyright (c) Steve Scherf et al.
# Submitted via: ExactAudioCopy v0.99pb3
#
DISCID=9a0cd20c
DTITLE=Rosetta Stone - Foundation Stones EP
DYEAR=1993
DGENRE=Gothic Rock
TTITLE0=Evolution
TTITLE1=Whispers
TTITLE2=Hit
TTITLE3=Chapter And Verse (Interment)
TTITLE4=Summer
TTITLE5=Cimmerian
TTITLE6=If Only And Sometimes
TTITLE7=Chapter And Verse
TTITLE8=Leave Me For Dead (Live)
TTITLE9=Deeper (Live)
TTITLE10=Heart And Soul (Live)
TTITLE11=Subterfuge (Live)
EXTD=YEAR: 1993
EXTT0=
EXTT1=
EXTT2=
EXTT3=
EXTT4=
EXTT5=
EXTT6=
EXTT7=
EXTT8=
EXTT9=
EXTT10=
EXTT11=
PLAYORDER=
